<svg xmlns="http://www.w3.org/2000/svg" version="1.1" xmlns:xlink="http://www.w3.org/1999/xlink" width="1000" height="1000"><g clip-path="url(#SvgjsClipPath1035)"><rect width="1000" height="1000" fill="#fbf1c7"></rect><g transform="matrix(0.9765625,0,0,0.9765625,0,0)"><svg xmlns="http://www.w3.org/2000/svg" version="1.1" xmlns:xlink="http://www.w3.org/1999/xlink" width="1024" height="1024"><svg width="1024" height="1024" viewBox="0 0 1024 1024" fill="none" xmlns="http://www.w3.org/2000/svg">
  <g>
    <rect width="1024" height="1024" fill="#FBF1C7" fill-rule="evenodd"></rect>
    <path d="M216.241 654L173.759 654L173.759 546.384L0 546.384L0 522.114L173.759 88.4561L173.759 0L216.241 0L216.241 88.4561L390 522.114L390 546.384L216.241 546.384L216.241 654ZM173 498L173 214L67 498L173 498ZM321 498L216 224L216 498L321 498Z" fill="#98971A" transform="translate(317 185)"></path>
  </g>
</svg></svg></g></g><defs><clipPath id="SvgjsClipPath1035"><rect width="1000" height="1000" x="0" y="0" rx="500" ry="500"></rect></clipPath></defs></svg>