<?xml version="1.0" encoding="utf-8"?>
<svg width="630" height="500" viewBox="0 0 630 500" fill="none" xmlns="http://www.w3.org/2000/svg">
  <g>
    <rect width="630" height="500" fill="#FBF1C7" fill-rule="evenodd" />
    <path d="M21.6241 65L17.3759 65L17.3759 54.3042L0 54.3042L0 51.8921L17.3759 8.7915L17.3759 0L21.6241 0L21.6241 8.7915L39 51.8921L39 54.3042L21.6241 54.3042L21.6241 65ZM17.3 49.4955L17.3 21.2691L6.70001 49.4955L17.3 49.4955ZM32.1 49.4954L21.6 22.263L21.6 49.4954L32.1 49.4954Z" fill="#98971A" transform="translate(47 275)" />
    <path d="M21.6241 65L17.3759 65L17.3759 54.3042L0 54.3042L0 51.8921L17.3759 8.7915L17.3759 0L21.6241 0L21.6241 8.7915L39 51.8921L39 54.3042L21.6241 54.3042L21.6241 65ZM17.3 49.4955L17.3 21.2691L6.70001 49.4955L17.3 49.4955ZM32.1 49.4954L21.6 22.263L21.6 49.4954L32.1 49.4954Z" fill="#98971A" transform="translate(110 275)" />
    <path d="M21.6241 65L17.3759 65L17.3759 54.3042L0 54.3042L0 51.8921L17.3759 8.7915L17.3759 0L21.6241 0L21.6241 8.7915L39 51.8921L39 54.3042L21.6241 54.3042L21.6241 65ZM17.3 49.4955L17.3 21.2691L6.70001 49.4955L17.3 49.4955ZM32.1 49.4954L21.6 22.263L21.6 49.4954L32.1 49.4954Z" fill="#98971A" transform="translate(173 275)" />
    <path d="M21.6241 65L17.3759 65L17.3759 54.3042L0 54.3042L0 51.8921L17.3759 8.7915L17.3759 0L21.6241 0L21.6241 8.7915L39 51.8921L39 54.3042L21.6241 54.3042L21.6241 65ZM17.3 49.4955L17.3 21.2691L6.70001 49.4955L17.3 49.4955ZM32.1 49.4954L21.6 22.263L21.6 49.4954L32.1 49.4954Z" fill="#98971A" transform="translate(237 275)" />
    <path d="M21.6241 65L17.3759 65L17.3759 54.3042L0 54.3042L0 51.8921L17.3759 8.7915L17.3759 0L21.6241 0L21.6241 8.7915L39 51.8921L39 54.3042L21.6241 54.3042L21.6241 65ZM17.3 49.4955L17.3 21.2691L6.70001 49.4955L17.3 49.4955ZM32.1 49.4954L21.6 22.263L21.6 49.4954L32.1 49.4954Z" fill="#98971A" transform="translate(300 275)" />
    <path d="M21.6241 65L17.3759 65L17.3759 54.3042L0 54.3042L0 51.8921L17.3759 8.7915L17.3759 0L21.6241 0L21.6241 8.7915L39 51.8921L39 54.3042L21.6241 54.3042L21.6241 65ZM17.3 49.4955L17.3 21.2691L6.70001 49.4955L17.3 49.4955ZM32.1 49.4954L21.6 22.263L21.6 49.4954L32.1 49.4954Z" fill="#98971A" transform="translate(47 193)" />
    <path d="M21.6241 65L17.3759 65L17.3759 54.3042L0 54.3042L0 51.8921L17.3759 8.7915L17.3759 0L21.6241 0L21.6241 8.7915L39 51.8921L39 54.3042L21.6241 54.3042L21.6241 65ZM17.3 49.4955L17.3 21.2691L6.70001 49.4955L17.3 49.4955ZM32.1 49.4954L21.6 22.263L21.6 49.4954L32.1 49.4954Z" fill="#98971A" transform="translate(110 193)" />
    <path d="M21.6241 65L17.3759 65L17.3759 54.3042L0 54.3042L0 51.8921L17.3759 8.7915L17.3759 0L21.6241 0L21.6241 8.7915L39 51.8921L39 54.3042L21.6241 54.3042L21.6241 65ZM17.3 49.4955L17.3 21.2691L6.70001 49.4955L17.3 49.4955ZM32.1 49.4954L21.6 22.263L21.6 49.4954L32.1 49.4954Z" fill="#98971A" transform="translate(237 129)" />
    <path d="M0 77.6079L29.1105 0L41.2882 0L70.2827 77.6079L58.6849 77.6079L52.77 60.6711L17.5127 60.6711L11.5978 77.6079L0 77.6079ZM20.876 51.2746L49.4066 51.2746L35.1413 11.0206L20.876 51.2746ZM112.731 77.6079L112.731 0.115997L163.065 0.115997L163.065 9.51248L123.633 9.51248L123.633 33.0617L163.065 33.0617L163.065 42.4581L123.633 42.4581L123.633 77.6079L112.731 77.6079ZM199.482 79C196.158 79 192.872 78.42 189.624 77.2599C186.377 76.0999 183.419 74.3018 180.752 71.8657C178.084 69.4295 175.939 66.3167 174.315 62.5272C172.691 58.7376 171.879 54.2521 171.879 49.0705C171.879 43.8889 172.691 39.4033 174.315 35.6138C175.939 31.8243 178.084 28.7115 180.752 26.2753C183.419 23.8392 186.377 22.0411 189.624 20.8811C192.872 19.721 196.158 19.141 199.482 19.141C202.807 19.141 206.112 19.721 209.398 20.8811C212.684 22.0411 215.661 23.8392 218.329 26.2753C220.996 28.7115 223.123 31.8243 224.708 35.6138C226.293 39.4033 227.085 43.8889 227.085 49.0705C227.085 54.2521 226.293 58.7376 224.708 62.5272C223.123 66.3167 220.996 69.4295 218.329 71.8657C215.661 74.3018 212.685 76.0999 209.398 77.2599C206.112 78.42 202.807 79 199.482 79L199.482 79ZM199.482 70.4156C202.266 70.4156 204.972 69.6615 207.601 68.1534C210.229 66.6454 212.394 64.3253 214.095 61.1931C215.796 58.0609 216.647 54.0201 216.647 49.0705C216.647 44.1209 215.796 40.08 214.095 36.9479C212.394 33.8157 210.229 31.4956 207.601 29.9875C204.972 28.4794 202.266 27.7254 199.482 27.7254C196.776 27.7254 194.089 28.4794 191.422 29.9875C188.754 31.4956 186.57 33.8157 184.869 36.9479C183.168 40.08 182.317 44.1209 182.317 49.0705C182.317 54.0201 183.168 58.0609 184.869 61.1931C186.57 64.3253 188.754 66.6454 191.422 68.1534C194.089 69.6615 196.776 70.4156 199.482 70.4156L199.482 70.4156ZM239.611 77.6079L239.611 20.069L246.685 20.069L249.817 30.7415C251.827 27.2614 254.552 24.4579 257.993 22.3311C261.434 20.2043 265.551 19.141 270.345 19.141L270.345 29.2335C269.803 29.2335 269.243 29.2335 268.663 29.2335C268.083 29.2335 267.523 29.2722 266.981 29.3495C260.409 29.8908 255.828 32.1723 253.238 36.1938C250.648 40.2154 249.353 45.7836 249.353 52.8987L249.353 77.6079L239.611 77.6079ZM303.514 79C297.484 79 292.381 77.666 288.205 74.9978C284.03 72.3297 280.841 68.7335 278.637 64.2093C276.434 59.685 275.332 54.6001 275.332 48.9545C275.332 42.8448 276.569 37.5666 279.043 33.1197C281.517 28.6728 284.861 25.2313 289.075 22.7952C293.289 20.359 298.025 19.141 303.282 19.141C307.844 19.141 311.865 20.0497 315.344 21.8671C318.824 23.6845 321.704 26.1207 323.985 29.1755C326.266 32.2303 327.928 35.6911 328.972 39.558C330.015 43.4249 330.383 47.4077 330.073 51.5066L285.77 51.5066C285.924 56.3015 286.988 60.0911 288.959 62.8752C290.931 65.6593 293.27 67.6121 295.976 68.7335C298.682 69.8549 301.195 70.4156 303.514 70.4156C306.762 70.4156 309.487 69.8936 311.691 68.8495C313.895 67.8054 315.654 66.4327 316.968 64.7313L326.362 67.5154C324.275 70.8409 321.298 73.5864 317.432 75.7518C313.566 77.9173 308.927 79 303.514 79L303.514 79ZM285.886 43.7342L319.752 43.7342C319.752 41.0274 319.075 38.4366 317.722 35.9618C316.369 33.487 314.474 31.4569 312.039 29.8715C309.603 28.2861 306.685 27.4934 303.283 27.4934C300.422 27.4934 297.716 28.0347 295.164 29.1175C292.612 30.2002 290.506 31.9403 288.843 34.3377C287.181 36.7352 286.195 39.8673 285.886 43.7342L285.886 43.7342ZM361.155 79C357.831 79 354.564 78.478 351.355 77.4339C348.146 76.3898 345.286 74.8044 342.773 72.6777C340.26 70.5509 338.346 67.8634 337.032 64.6153L346.426 61.1351C347.277 64.5379 349.152 66.9934 352.051 68.5015C354.951 70.0095 357.985 70.7635 361.155 70.7635C363.475 70.7635 365.659 70.4155 367.708 69.7195C369.757 69.0235 371.439 68.0181 372.753 66.7034C374.067 65.3886 374.725 63.8806 374.725 62.1791C374.725 59.0083 373.468 56.7655 370.955 55.4508C368.443 54.136 365.446 53.1307 361.967 52.4346L353.965 50.8105C351.181 50.1919 348.591 49.3218 346.194 48.2004C343.797 47.079 341.864 45.4743 340.395 43.3862C338.926 41.2981 338.192 38.5139 338.192 35.0338C338.192 31.5536 339.274 28.6341 341.439 26.2753C343.604 23.9165 346.368 22.1184 349.732 20.881C353.095 19.6437 356.632 19.025 360.343 19.025C364.905 19.025 369.216 19.9724 373.275 21.8671C377.334 23.7619 380.214 26.72 381.915 30.7415L372.753 34.1057C371.748 31.7856 369.989 30.0648 367.476 28.9435C364.963 27.8221 362.354 27.2614 359.648 27.2614C356.71 27.2614 354.042 27.9188 351.645 29.2335C349.248 30.5482 348.05 32.443 348.05 34.9178C348.05 37.3925 349.074 39.1906 351.123 40.312C353.172 41.4334 355.704 42.3035 358.72 42.9221L366.258 44.4302C369.351 45.049 372.289 45.9383 375.073 47.0984C377.856 48.2584 380.137 49.9792 381.915 52.2606C383.694 54.5421 384.583 57.7322 384.583 61.8311C384.583 65.466 383.462 68.5594 381.219 71.1116C378.977 73.6637 376.078 75.6165 372.521 76.9699C368.964 78.3233 365.176 79 361.155 79L361.155 79ZM413.693 77.6079C410.059 77.6079 407.256 77.2406 405.285 76.5059C403.313 75.7712 401.96 74.3597 401.226 72.2717C400.491 70.1835 400.124 67.1674 400.124 63.2232L400.124 27.8414L390.382 27.8414L390.382 20.069L400.124 20.069L400.124 5.56827L409.866 5.56827L409.866 20.069L420.999 20.069L420.999 27.8414L409.866 27.8414L409.866 61.5991C409.866 64.5379 410.156 66.51 410.736 67.5154C411.315 68.5208 412.997 69.0235 415.781 69.0235L420.999 69.0235L420.999 77.6079L413.693 77.6079Z" fill="#504945" transform="translate(48 372)" />
  </g>
</svg>